<svg width="581" height="136" viewBox="0 0 581 136" fill="none" xmlns="http://www.w3.org/2000/svg">
<path d="M182.96 82L172.7 62.74H166.4V82H149.03V19H176.39C189.89 19 199.79 28.18 199.79 41.32C199.79 49.06 196.01 55.45 189.8 59.14L202.31 82H182.96ZM166.4 34.48V48.16H174.32C179.18 48.16 181.97 45.19 181.97 41.32C181.97 37.36 179.18 34.48 174.32 34.48H166.4ZM258.026 57.25C258.026 58.78 257.936 60.22 257.756 61.75H221.666C222.746 67.33 226.256 70.21 231.566 70.21C235.436 70.21 238.766 68.5 240.296 65.62H257.036C253.616 76.69 243.716 83.62 231.566 83.62C216.356 83.62 205.196 72.55 205.196 57.7C205.196 42.85 216.266 31.87 231.566 31.87C247.226 31.87 258.026 43.03 258.026 57.25ZM231.566 45.01C226.706 45.01 223.286 47.62 221.936 52.48H241.556C240.116 47.62 236.606 45.01 231.566 45.01ZM300.382 15.85H316.942V82H304.612L302.992 78.4C299.032 81.73 293.992 83.71 288.322 83.71C273.472 83.71 262.852 72.82 262.852 57.7C262.852 42.67 273.472 31.87 288.322 31.87C292.822 31.87 296.962 33.04 300.382 35.2V15.85ZM290.572 68.86C296.872 68.86 301.462 64.09 301.462 57.79C301.462 51.4 296.872 46.63 290.572 46.63C284.362 46.63 279.682 51.4 279.682 57.79C279.682 64.09 284.362 68.86 290.572 68.86ZM359.919 34.21V47.35H349.029V82H332.289V47.35H324.279L324.189 34.21H332.469V29.62C332.469 19.81 337.869 14.14 348.129 14.14H359.829V27.01H352.449C349.929 27.01 348.489 28.45 348.489 30.97V34.21H359.919ZM415.438 57.25C415.438 58.78 415.348 60.22 415.168 61.75H379.078C380.158 67.33 383.668 70.21 388.978 70.21C392.848 70.21 396.178 68.5 397.708 65.62H414.448C411.028 76.69 401.128 83.62 388.978 83.62C373.768 83.62 362.608 72.55 362.608 57.7C362.608 42.85 373.678 31.87 388.978 31.87C404.638 31.87 415.438 43.03 415.438 57.25ZM388.978 45.01C384.118 45.01 380.698 47.62 379.348 52.48H398.968C397.528 47.62 394.018 45.01 388.978 45.01ZM450.234 33.22H454.734V48.52H448.164C442.314 48.52 439.794 51.13 439.794 57.34V82H423.054V33.4H434.304L436.914 38.8C440.334 34.84 444.474 33.22 450.234 33.22ZM510.272 57.25C510.272 58.78 510.182 60.22 510.002 61.75H473.912C474.992 67.33 478.502 70.21 483.812 70.21C487.682 70.21 491.012 68.5 492.542 65.62H509.282C505.862 76.69 495.962 83.62 483.812 83.62C468.602 83.62 457.442 72.55 457.442 57.7C457.442 42.85 468.512 31.87 483.812 31.87C499.472 31.87 510.272 43.03 510.272 57.25ZM483.812 45.01C478.952 45.01 475.532 47.62 474.182 52.48H493.802C492.362 47.62 488.852 45.01 483.812 45.01ZM552.628 15.85H569.188V82H556.858L555.238 78.4C551.278 81.73 546.238 83.71 540.568 83.71C525.718 83.71 515.098 72.82 515.098 57.7C515.098 42.67 525.718 31.87 540.568 31.87C545.068 31.87 549.208 33.04 552.628 35.2V15.85ZM542.818 68.86C549.118 68.86 553.708 64.09 553.708 57.79C553.708 51.4 549.118 46.63 542.818 46.63C536.608 46.63 531.928 51.4 531.928 57.79C531.928 64.09 536.608 68.86 542.818 68.86Z" fill="#343C6A"/>
<path d="M108 23H123C125.761 23 128 25.2386 128 28V71C128 73.7614 125.761 76 123 76H108V23Z" fill="#16DBCC"/>
<rect x="25" y="12" width="78" height="78" rx="10" fill="#2D60FF"/>
<path d="M64 12H93C98.5228 12 103 16.4772 103 22V80C103 85.5229 98.5228 90 93 90H64V12Z" fill="#16DBCC" fill-opacity="0.35"/>
<path d="M43.2086 90.2448C43.3115 88.904 44.3485 87.87 45.6729 87.6373C47.8114 87.2616 51.0539 86.6075 53.4648 85.7453C56.1726 84.7768 59.9292 82.7955 61.9927 81.6633C62.9306 81.1488 64.0694 81.1488 65.0073 81.6633C67.0708 82.7955 70.8274 84.7768 73.5352 85.7453C75.9461 86.6075 79.1886 87.2616 81.3271 87.6373C82.6515 87.87 83.6885 88.904 83.7914 90.2448C84.4144 98.3622 84.9674 126.106 64.4693 133.908C63.8528 134.143 63.1472 134.143 62.5307 133.908C42.0326 126.106 42.5856 98.3622 43.2086 90.2448Z" stroke="white" stroke-width="3"/>
<path d="M65.6419 56.4L63.3311 51.9977H61.9122V56.4H58V42H64.1622C67.2027 42 69.4324 44.0983 69.4324 47.1017C69.4324 48.8709 68.5811 50.3314 67.1824 51.1749L70 56.4H65.6419ZM61.9122 45.5383V48.6651H63.6959C64.7905 48.6651 65.4189 47.9863 65.4189 47.1017C65.4189 46.1966 64.7905 45.5383 63.6959 45.5383H61.9122Z" fill="white"/>
<path d="M20 76L5 76C2.23857 76 -3.61899e-06 73.7614 -3.37758e-06 71L3.81596e-07 28C6.23007e-07 25.2386 2.23858 23 5 23L20 23L20 76Z" fill="#16DBCC"/>
</svg>
