<svg width="25" height="25" viewBox="0 0 25 25" fill="none" xmlns="http://www.w3.org/2000/svg">
<rect width="25" height="25" rx="12.5" fill="#F5B214"/>
<g clip-path="url(#clip0_1_254)">
<path fill-rule="evenodd" clip-rule="evenodd" d="M5 12.5L5 6.87497L7.0625 8.93747C8.1875 7.15622 10.25 5.93747 12.5 5.93747C16.1563 5.93747 19.0625 8.84372 19.0625 12.5C19.0625 16.1562 16.1562 19.0625 12.5 19.0625C9.5 19.0625 7.0625 17.0937 6.21875 14.375L8.1875 14.375C8.9375 16.0625 10.625 17.1875 12.5 17.1875C15.125 17.1875 17.1875 15.125 17.1875 12.5C17.1875 9.87497 15.125 7.81247 12.5 7.81247C10.7188 7.81247 9.21875 8.84372 8.375 10.25L10.625 12.5L5 12.5Z" fill="white"/>
</g>
<defs>
<clipPath id="clip0_1_254">
<rect width="15" height="15" fill="white" transform="translate(20 20) rotate(-180)"/>
</clipPath>
</defs>
</svg>
