<svg width="175" height="24" viewBox="0 0 175 24" fill="none" xmlns="http://www.w3.org/2000/svg">
<path d="M56.2415 21.5012L53.0911 15.6194H51.1457V21.5012H45.799V2.27319H54.2082C58.3626 2.27319 61.4 5.07702 61.4 9.0896C61.4 11.4573 60.2327 13.4013 58.325 14.5352L62.1656 21.5136H56.2415V21.5012ZM51.1457 6.99608V11.1707H53.5806C55.0742 11.1707 55.9277 10.261 55.9277 9.07714C55.9277 7.86838 55.0742 6.98362 53.5806 6.98362H51.1457V6.99608ZM79.3229 13.9496C79.3229 14.4106 79.2978 14.8592 79.2351 15.3203H68.1399C68.4662 17.0275 69.5456 17.8998 71.1898 17.8998C72.3822 17.8998 73.3988 17.3765 73.8758 16.5042H79.0217C77.9674 19.8812 74.9301 21.9996 71.1898 21.9996C66.5083 21.9996 63.0818 18.6226 63.0818 14.0866C63.0818 9.55067 66.4832 6.19855 71.1898 6.19855C76.0095 6.19855 79.3229 9.60052 79.3229 13.9496ZM71.1898 10.2111C69.6962 10.2111 68.642 11.0087 68.2278 12.4916H74.2648C73.813 11.0087 72.7336 10.2111 71.1898 10.2111ZM92.351 1.3012H97.4467V21.5012H93.6563L93.1543 20.4046C91.9368 21.4264 90.393 22.0246 88.6484 22.0246C84.0798 22.0246 80.8165 18.6974 80.8165 14.0866C80.8165 9.50083 84.0798 6.19855 88.6484 6.19855C90.029 6.19855 91.3092 6.55993 92.351 7.22038V1.3012ZM89.3262 17.4886C91.259 17.4886 92.6773 16.0306 92.6773 14.1116C92.6773 12.1551 91.2716 10.7096 89.3262 10.7096C87.4184 10.7096 85.975 12.1676 85.975 14.1116C85.9876 16.0306 87.4184 17.4886 89.3262 17.4886ZM110.65 6.90885V10.9214H107.299V21.5012H102.153V10.9214H99.6934L99.6683 6.90885H102.216V5.51317C102.216 2.52242 103.873 0.790283 107.036 0.790283H110.638V4.71564H108.366C107.588 4.71564 107.149 5.15179 107.149 5.92439V6.90885H110.65ZM127.72 13.9496C127.72 14.4106 127.695 14.8592 127.632 15.3203H116.537C116.863 17.0275 117.943 17.8998 119.587 17.8998C120.779 17.8998 121.796 17.3765 122.273 16.5042H127.419C126.364 19.8812 123.327 21.9996 119.587 21.9996C114.905 21.9996 111.479 18.6226 111.479 14.0866C111.479 9.55067 114.88 6.19855 119.587 6.19855C124.406 6.19855 127.72 9.60052 127.72 13.9496ZM119.587 10.2111C118.093 10.2111 117.039 11.0087 116.625 12.4916H122.662C122.223 11.0087 121.143 10.2111 119.587 10.2111ZM138.426 6.60977H139.807V11.2828H137.786C135.991 11.2828 135.213 12.0803 135.213 13.9745V21.5012H130.067V6.65962H133.531L134.334 8.30453C135.376 7.10823 136.656 6.60977 138.426 6.60977ZM156.876 13.9496C156.876 14.4106 156.851 14.8592 156.788 15.3203H145.693C146.019 17.0275 147.099 17.8998 148.743 17.8998C149.935 17.8998 150.952 17.3765 151.429 16.5042H156.575C155.521 19.8812 152.483 21.9996 148.743 21.9996C144.062 21.9996 140.635 18.6226 140.635 14.0866C140.635 9.55067 144.036 6.19855 148.743 6.19855C153.563 6.19855 156.876 9.60052 156.876 13.9496ZM148.743 10.2111C147.249 10.2111 146.195 11.0087 145.781 12.4916H151.818C151.379 11.0087 150.299 10.2111 148.743 10.2111ZM169.904 1.3012H175V21.5012H171.21L170.707 20.4046C169.49 21.4264 167.946 22.0246 166.202 22.0246C161.633 22.0246 158.37 18.6974 158.37 14.0866C158.37 9.50083 161.633 6.19855 166.202 6.19855C167.582 6.19855 168.862 6.55993 169.904 7.22038V1.3012ZM166.892 17.4886C168.825 17.4886 170.243 16.0306 170.243 14.1116C170.243 12.1551 168.837 10.7096 166.892 10.7096C164.984 10.7096 163.541 12.1676 163.541 14.1116C163.541 16.0306 164.984 17.4886 166.892 17.4886Z" fill="#343C6A"/>
<path d="M33.1976 3.49442H37.8039C38.6574 3.49442 39.3351 4.17979 39.3351 5.01471V18.1366C39.3351 18.984 38.6448 19.6569 37.8039 19.6569H33.1976V3.49442Z" fill="#16DBCC"/>
<path d="M10.7563 0.129822H28.5914C30.2858 0.129822 31.6664 1.50058 31.6664 3.18287V20.8906C31.6664 22.5729 30.2858 23.9436 28.5914 23.9436H10.7563C9.0619 23.9436 7.68127 22.5729 7.68127 20.8906V3.18287C7.68127 1.50058 9.04934 0.129822 10.7563 0.129822Z" fill="#2D60FF"/>
<g opacity="0.35">
<path d="M19.6676 0.129822H28.5789C30.2733 0.129822 31.6539 1.50058 31.6539 3.18287V20.8906C31.6539 22.5729 30.2733 23.9436 28.5789 23.9436H19.6676V0.129822Z" fill="#16DBCC"/>
</g>
<path d="M19.517 19.47C19.3789 19.47 19.2408 19.445 19.1028 19.4077C12.5134 17.2394 12.6264 9.58805 12.8147 7.28269C12.8649 6.67208 13.3418 6.17362 13.9694 6.08639C14.6471 5.9867 15.5885 5.81224 16.2913 5.58793C17.1197 5.32624 18.2744 4.7904 18.9019 4.49133C19.291 4.3044 19.7429 4.3044 20.1445 4.49133C20.7595 4.7904 21.9268 5.32624 22.7426 5.58793C23.4454 5.81224 24.3993 5.97424 25.0645 6.07393C25.6921 6.17362 26.169 6.65962 26.2192 7.27023C26.4075 9.56313 26.5079 17.2269 19.9186 19.3952C19.7931 19.4575 19.655 19.47 19.517 19.47ZM19.517 5.2764C19.4416 5.2764 19.3663 5.28886 19.3036 5.32624C18.6635 5.63778 17.4586 6.19854 16.58 6.47269C15.8269 6.70946 14.8228 6.88392 14.12 6.99607C13.9192 7.03346 13.756 7.183 13.7434 7.36992C13.5677 9.50082 13.4548 16.5914 19.404 18.5478C19.4793 18.5727 19.5672 18.5727 19.6425 18.5478C25.5917 16.5914 25.4787 9.50082 25.303 7.36992C25.2905 7.183 25.1273 7.03346 24.9265 6.99607C24.2236 6.88392 23.2195 6.70946 22.4665 6.47269C21.5879 6.19854 20.383 5.63778 19.7429 5.32624C19.6676 5.28886 19.5923 5.2764 19.517 5.2764Z" fill="white"/>
<path d="M20.1696 13.6879L19.4542 12.3421H19.0149V13.6879H17.81V9.289H19.7052C20.634 9.289 21.3243 9.92453 21.3243 10.8467C21.3243 11.3825 21.0607 11.8311 20.634 12.0928L21.5 13.6879H20.1696ZM19.0275 10.3731V11.3327H19.5797C19.9186 11.3327 20.1068 11.1208 20.1068 10.8591C20.1068 10.585 19.9186 10.3856 19.5797 10.3856H19.0275V10.3731Z" fill="white"/>
<path d="M6.13749 19.6694H1.53123C0.677759 19.6694 0 18.984 0 18.1491V5.01471C0 4.16733 0.690311 3.49442 1.53123 3.49442H6.13749V19.6694Z" fill="#16DBCC"/>
</svg>
